# Blender 4.5.1 LTS
# www.blender.org
mtllib base.mtl
o Cube.003
v -0.102894 -0.118538 -0.555599
v -0.102894 -0.055245 -0.543971
v -0.148398 -0.081077 -0.581432
v -0.148398 -0.176919 -0.720417
v -0.102894 -0.202752 -0.757877
v -0.102894 -0.214380 -0.694584
v 0.159110 -0.081077 -0.581432
v 0.113606 -0.055245 -0.543971
v 0.113606 -0.118538 -0.555599
v 0.113606 -0.214380 -0.694584
v 0.113606 -0.202752 -0.757877
v 0.159110 -0.176919 -0.720417
v -0.148398 0.154190 -0.948745
v -0.102894 0.191651 -0.974577
v -0.102894 0.128358 -0.986206
v 0.159110 0.154190 -0.948745
v 0.113606 0.128358 -0.986206
v 0.113606 0.191651 -0.974577
v -0.102894 0.275864 -0.772300
v -0.102894 0.287493 -0.835592
v -0.148398 0.250032 -0.809760
v 0.159110 0.250032 -0.809760
v 0.113606 0.287493 -0.835592
v 0.113606 0.275864 -0.772300
v 0.555599 -0.118538 -0.102894
v 0.543971 -0.055245 -0.102894
v 0.581432 -0.081077 -0.148398
v 0.720417 -0.176919 -0.148398
v 0.757877 -0.202752 -0.102894
v 0.694584 -0.214380 -0.102894
v 0.581432 -0.081077 0.159110
v 0.543971 -0.055245 0.113606
v 0.555599 -0.118538 0.113606
v 0.694584 -0.214380 0.113606
v 0.757877 -0.202752 0.113606
v 0.720417 -0.176919 0.159110
v 0.948745 0.154190 -0.148398
v 0.974577 0.191650 -0.102894
v 0.986206 0.128358 -0.102894
v 0.948745 0.154190 0.159110
v 0.986206 0.128358 0.113606
v 0.974577 0.191650 0.113606
v 0.772300 0.275864 -0.102894
v 0.835592 0.287493 -0.102894
v 0.809760 0.250032 -0.148398
v 0.809760 0.250032 0.159110
v 0.835592 0.287493 0.113606
v 0.772299 0.275864 0.113606
v -0.555599 -0.118538 0.102894
v -0.543971 -0.055245 0.102894
v -0.581432 -0.081077 0.148398
v -0.720417 -0.176919 0.148398
v -0.757877 -0.202752 0.102894
v -0.694584 -0.214380 0.102895
v -0.581432 -0.081077 -0.159110
v -0.543971 -0.055245 -0.113606
v -0.555599 -0.118538 -0.113606
v -0.694584 -0.214380 -0.113606
v -0.757877 -0.202752 -0.113606
v -0.720417 -0.176919 -0.159110
v -0.948745 0.154190 0.148398
v -0.974577 0.191650 0.102895
v -0.986206 0.128358 0.102895
v -0.948745 0.154190 -0.159110
v -0.986206 0.128358 -0.113606
v -0.974577 0.191650 -0.113606
v -0.772299 0.275864 0.102895
v -0.835592 0.287493 0.102895
v -0.809760 0.250032 0.148398
v -0.809760 0.250032 -0.159110
v -0.835592 0.287493 -0.113606
v -0.772300 0.275864 -0.113606
v 0.102894 -0.118538 0.555600
v 0.102894 -0.055245 0.543971
v 0.148398 -0.081077 0.581432
v 0.148398 -0.176919 0.720417
v 0.102895 -0.202752 0.757877
v 0.102895 -0.214380 0.694585
v -0.159110 -0.081077 0.581432
v -0.113606 -0.055245 0.543971
v -0.113606 -0.118538 0.555600
v -0.113606 -0.214380 0.694585
v -0.113606 -0.202752 0.757877
v -0.159110 -0.176919 0.720417
v 0.148399 0.154190 0.948745
v 0.102895 0.191650 0.974577
v 0.102895 0.128358 0.986206
v -0.159110 0.154190 0.948745
v -0.113606 0.128358 0.986206
v -0.113606 0.191650 0.974578
v 0.102895 0.275864 0.772300
v 0.102895 0.287493 0.835592
v 0.148398 0.250032 0.809760
v -0.159110 0.250032 0.809760
v -0.113606 0.287493 0.835593
v -0.113606 0.275864 0.772300
v -0.330807 0.078039 0.330807
v -0.684231 -0.068354 0.684231
v -0.330807 0.078039 -0.330807
v -0.684231 -0.068354 -0.684231
v 0.330807 0.078040 0.330807
v 0.684231 -0.068353 0.684231
v 0.330807 0.078039 -0.330807
v 0.684231 -0.068354 -0.684231
v -0.750000 -0.571266 -1.000000
v 1.000000 -0.571266 -0.750000
v -0.750000 -0.571266 1.000000
v -1.000000 -0.571266 -0.750000
v -1.000000 -0.384122 -0.750000
v 0.750000 -0.384122 1.000000
v 0.750000 -0.384122 -1.000000
v 1.000000 -0.384122 -0.750000
v 0.750000 -0.571266 -1.000000
v 1.000000 -0.571266 0.750000
v 0.750000 -0.571266 1.000000
v -1.000000 -0.571266 0.750000
v -1.000000 -0.384122 0.750000
v -0.750000 -0.384122 1.000000
v -0.750000 -0.384122 -1.000000
v 1.000000 -0.384122 0.750000
vn -0.5774 -0.1475 0.8031
vn -0.5774 -0.8031 -0.1475
vn 0.5774 -0.1475 0.8031
vn 0.5774 -0.8031 -0.1475
vn -0.5774 0.1475 -0.8031
vn 0.5774 0.1475 -0.8031
vn -0.5773 0.8031 0.1475
vn 0.5773 0.8031 0.1475
vn -0.7071 -0.5821 0.4014
vn -0.2826 0.9152 -0.2873
vn 0.7071 -0.5821 0.4014
vn 0.6950 -0.2150 -0.6861
vn 0.6583 -0.3808 -0.6493
vn 0.6584 -0.3803 -0.6495
vn -0.0000 -0.1807 0.9835
vn -0.0000 -0.9835 -0.1807
vn 0.2873 0.9152 -0.2826
vn -0.6495 -0.3803 -0.6584
vn -0.6861 -0.2150 -0.6950
vn -0.6493 -0.3808 -0.6583
vn -0.0000 0.1807 -0.9835
vn -0.7071 0.5821 -0.4014
vn -0.0000 0.9835 0.1807
vn 0.7071 0.5821 -0.4014
vn -0.0000 -0.8232 0.5677
vn -1.0000 -0.0000 -0.0000
vn 0.4089 0.9126 -0.0000
vn -0.0000 -0.5677 -0.8232
vn 1.0000 -0.0000 -0.0000
vn -0.0000 0.8232 -0.5677
vn -0.8031 -0.1475 -0.5774
vn 0.1475 -0.8031 -0.5774
vn -0.8031 -0.1475 0.5774
vn 0.1475 -0.8031 0.5774
vn 0.8031 0.1476 -0.5773
vn 0.8031 0.1476 0.5773
vn -0.1475 0.8031 -0.5773
vn -0.1475 0.8031 0.5774
vn -0.4014 -0.5821 -0.7071
vn -0.7003 -0.1981 0.6858
vn -0.6417 0.4383 0.6294
vn -0.6996 -0.2028 0.6852
vn -0.4014 -0.5821 0.7071
vn 0.6861 -0.2150 0.6950
vn 0.6493 -0.3808 0.6583
vn 0.6495 -0.3803 0.6584
vn -0.9835 -0.1807 -0.0000
vn 0.1807 -0.9835 -0.0000
vn 0.2855 0.9112 -0.2970
vn 0.2826 0.9152 0.2873
vn -0.3015 0.9146 0.2695
vn -0.6776 0.3112 0.6663
vn -0.6406 0.4383 0.6306
vn -0.6776 0.3115 0.6662
vn 0.9835 0.1807 -0.0000
vn 0.4014 0.5821 -0.7071
vn -0.1807 0.9835 -0.0000
vn 0.4014 0.5821 0.7071
vn -0.5677 -0.8232 -0.0000
vn -0.0000 -0.0000 -1.0000
vn -0.0000 0.9126 0.4089
vn 0.8232 -0.5677 -0.0000
vn -0.0000 -0.0000 1.0000
vn 0.5677 0.8232 -0.0000
vn 0.8031 -0.1475 0.5774
vn -0.1475 -0.8030 0.5774
vn 0.8031 -0.1475 -0.5774
vn -0.1475 -0.8031 -0.5774
vn -0.8030 0.1475 0.5774
vn -0.8031 0.1476 -0.5773
vn 0.1475 0.8030 0.5774
vn 0.1475 0.8031 -0.5773
vn 0.4014 -0.5821 0.7071
vn -0.2873 0.9152 0.2826
vn 0.4014 -0.5821 -0.7071
vn -0.6107 -0.4943 -0.6186
vn -0.6108 -0.4940 -0.6188
vn 0.9835 -0.1807 -0.0000
vn -0.1807 -0.9835 -0.0000
vn -0.2994 -0.9042 -0.3045
vn -0.6293 -0.4383 -0.6418
vn -0.2936 -0.9081 -0.2986
vn -0.6584 -0.3803 0.6495
vn -0.6950 -0.2150 0.6861
vn -0.6583 -0.3808 0.6493
vn -0.9835 0.1807 -0.0000
vn -0.4014 0.5821 0.7071
vn 0.1807 0.9835 -0.0000
vn -0.4014 0.5821 -0.7071
vn 0.5677 -0.8232 -0.0000
vn -0.4089 0.9126 -0.0000
vn -0.8232 -0.5677 -0.0000
vn -0.5677 0.8232 -0.0000
vn 0.5774 -0.1475 -0.8031
vn 0.5774 -0.8030 0.1475
vn -0.5774 -0.1475 -0.8031
vn -0.5774 -0.8031 0.1475
vn 0.5773 0.1475 0.8031
vn -0.5774 0.1475 0.8031
vn 0.5774 0.8030 -0.1475
vn -0.5773 0.8031 -0.1475
vn 0.7071 -0.5821 -0.4014
vn -0.6858 -0.1981 -0.7003
vn -0.8296 -0.1017 -0.5490
vn -0.5245 -0.1004 -0.8455
vn -0.6852 -0.2028 -0.6996
vn -0.7071 -0.5821 -0.4014
vn -0.6186 -0.4943 0.6107
vn -0.6188 -0.4940 0.6108
vn -0.0000 -0.1807 -0.9835
vn -0.0000 -0.9835 0.1807
vn -0.3045 -0.9042 0.2994
vn -0.6418 -0.4383 0.6293
vn -0.2986 -0.9081 0.2936
vn -0.6663 0.3112 -0.6776
vn -0.6306 0.4383 -0.6406
vn -0.6662 0.3115 -0.6776
vn -0.0000 0.1807 0.9835
vn 0.7071 0.5821 0.4014
vn -0.0000 0.9835 -0.1807
vn -0.7071 0.5821 0.4014
vn -0.0000 -0.8232 -0.5677
vn -0.0000 0.9126 -0.4089
vn -0.0000 -0.5677 0.8232
vn -0.0000 0.8232 0.5677
vn 0.6188 -0.4940 -0.6108
vn 0.6186 -0.4943 -0.6107
vn 0.6662 0.3115 0.6776
vn 0.6663 0.3112 0.6776
vn 0.6776 0.3115 -0.6662
vn 0.6776 0.3112 -0.6663
vn 0.6406 0.4383 -0.6306
vn 0.6306 0.4383 0.6406
vn 0.6293 -0.4383 0.6418
vn 0.2936 -0.9081 0.2986
vn 0.2994 -0.9042 0.3045
vn 0.6417 0.4383 -0.6294
vn 0.6996 -0.2028 -0.6852
vn 0.7003 -0.1981 -0.6858
vn 0.6294 0.4383 0.6417
vn 0.6852 -0.2028 0.6996
vn 0.6858 -0.1981 0.7003
vn 0.6418 -0.4383 -0.6293
vn 0.2986 -0.9081 -0.2936
vn 0.3045 -0.9042 -0.2994
vn 0.6108 -0.4940 0.6188
vn 0.6107 -0.4943 0.6186
vn 0.4900 0.7159 0.4973
vn -0.1988 0.9597 0.1988
vn -0.1988 0.9597 -0.1988
vn 0.1988 0.9597 0.1988
vn 0.1988 0.9597 -0.1988
vn -0.9213 0.0744 0.3817
vn -0.3817 0.0744 0.9213
vn -0.3827 -0.0000 0.9239
vn -0.9239 -0.0000 0.3827
vn -0.0000 1.0000 -0.0000
vn 0.5376 0.6496 0.5376
vn 0.4973 0.7159 -0.4900
vn -0.4900 0.7159 -0.4973
vn -0.4973 0.7159 0.4900
vn -0.4039 0.8223 0.4009
vn -0.4538 0.8841 0.1118
vn -0.1154 0.8841 0.4529
vn 0.4010 0.8223 0.4038
vn 0.1118 0.8841 0.4538
vn 0.4529 0.8841 0.1154
vn 0.4038 0.8223 -0.4009
vn 0.4538 0.8841 -0.1118
vn 0.1154 0.8841 -0.4529
vn -0.4048 0.8680 -0.2875
vn -0.3717 0.7608 -0.5319
vn -0.3058 0.8666 -0.3943
vn -0.1509 -0.6525 0.7426
vn -0.9213 0.0744 -0.3817
vn -0.3817 0.0744 -0.9213
vn 0.3817 0.0744 -0.9213
vn 0.6234 -0.5478 0.5579
vn 0.7026 -0.6173 -0.3539
vn 0.9124 0.3928 -0.1151
vn -0.6405 0.2908 -0.7108
vn -0.3493 0.3548 -0.8672
vn -0.1779 0.7141 -0.6771
vn -0.7071 0.7071 -0.0000
vn -0.0000 0.7071 0.7071
vn -0.8676 0.1989 -0.4558
vn -0.0625 -0.2672 0.9616
vn 0.6444 0.4130 0.6436
vn 0.8209 0.3358 0.4620
vn -0.5376 0.6496 0.5376
vn 0.7071 0.7071 -0.0000
vn 0.3963 0.9140 -0.0870
vt 0.829384 0.304986
vt 0.843100 0.304986
vt 0.837502 0.314847
vt 0.144707 0.911988
vt 0.152825 0.921850
vt 0.139109 0.921850
vt 0.837502 0.248206
vt 0.843100 0.258067
vt 0.829384 0.258067
vt 0.139109 0.968768
vt 0.152825 0.968768
vt 0.144707 0.978630
vt 0.416118 0.614992
vt 0.424236 0.624854
vt 0.410520 0.624854
vt 0.416118 0.681634
vt 0.410520 0.671772
vt 0.424236 0.671772
vt 0.464616 0.267683
vt 0.454857 0.277322
vt 0.451910 0.266372
vt 0.498740 0.313785
vt 0.487828 0.310703
vt 0.497586 0.301064
vt 0.881900 0.840247
vt 0.918487 0.840247
vt 0.918487 0.850108
vt 0.881900 0.850108
vt 0.451512 0.065313
vt 0.464232 0.064159
vt 0.769948 0.798791
vt 0.792327 0.827736
vt 0.784526 0.833768
vt 0.762147 0.804823
vt 0.804546 0.398510
vt 0.810144 0.388648
vt 0.810143 0.580074
vt 0.804545 0.571956
vt 0.701110 0.300681
vt 0.699799 0.313386
vt 0.410520 0.433428
vt 0.416118 0.441546
vt 0.918487 0.947132
vt 0.881900 0.947132
vt 0.881900 0.937271
vt 0.918487 0.937271
vt 0.707768 0.893114
vt 0.685389 0.864169
vt 0.693191 0.858138
vt 0.715570 0.887082
vt 0.108989 0.968768
vt 0.108989 0.921850
vt 0.497614 0.031188
vt 0.599989 0.064551
vt 0.497978 0.165308
vt 0.338764 0.624854
vt 0.338764 0.671772
vt 0.433428 0.298488
vt 0.466398 0.331868
vt 0.325047 0.920322
vt 0.338764 0.920322
vt 0.333166 0.930183
vt 0.160943 0.978630
vt 0.152825 0.968768
vt 0.166541 0.968768
vt 0.333166 0.863542
vt 0.338764 0.873403
vt 0.325047 0.873403
vt 0.166541 0.921850
vt 0.152825 0.921850
vt 0.160943 0.911988
vt 0.796428 0.388648
vt 0.804546 0.331868
vt 0.810144 0.341730
vt 0.796428 0.341730
vt 0.710749 0.310439
vt 0.747212 0.266556
vt 0.744130 0.277468
vt 0.734491 0.267710
vt 0.922525 0.221491
vt 0.959112 0.221491
vt 0.959112 0.231353
vt 0.922525 0.231353
vt 0.850769 0.183308
vt 0.922525 0.183307
vt 0.922525 0.328377
vt 0.850769 0.278895
vt 0.193548 0.817666
vt 0.215927 0.846610
vt 0.208125 0.852642
vt 0.185746 0.823698
vt 0.842650 0.181564
vt 0.837052 0.191426
vt 0.837052 -0.000000
vt 0.842650 0.008118
vt 0.734108 0.064186
vt 0.746814 0.065497
vt 0.856367 0.009861
vt 0.928123 0.009861
vt 0.928123 0.183307
vt 0.856367 0.133826
vt 0.959112 0.328377
vt 0.922525 0.328377
vt 0.922525 0.318516
vt 0.959112 0.318516
vt 0.131368 0.911988
vt 0.108989 0.883044
vt 0.116790 0.877012
vt 0.139169 0.905957
vt 0.196661 0.921850
vt 0.196661 0.968768
vt 0.598735 0.267318
vt 0.881900 0.388648
vt 0.881900 0.341730
vt 0.731915 0.331868
vt 0.765296 0.298898
vt 0.410947 0.874802
vt 0.397231 0.874802
vt 0.402829 0.864941
vt 0.232380 0.911988
vt 0.240498 0.921850
vt 0.226781 0.921850
vt 0.402829 0.931582
vt 0.397231 0.921721
vt 0.410947 0.921721
vt 0.226781 0.968768
vt 0.240498 0.968768
vt 0.232380 0.978630
vt 0.873782 0.761639
vt 0.881900 0.771500
vt 0.868184 0.771500
vt 0.873782 0.828280
vt 0.868184 0.818419
vt 0.881900 0.818419
vt 0.487975 0.021429
vt 0.498925 0.018483
vt 0.454594 0.054400
vt 0.695385 0.893114
vt 0.731972 0.893114
vt 0.731972 0.902976
vt 0.695385 0.902976
vt 0.699983 0.018084
vt 0.701137 0.030805
vt 0.300486 0.817666
vt 0.322865 0.846610
vt 0.315063 0.852642
vt 0.292684 0.823698
vt 0.338764 0.482910
vt 0.223728 0.877012
vt 0.215927 0.733898
vt 0.287576 0.729992
vt 0.868184 0.580074
vt 0.873782 0.588193
vt 0.731972 1.000000
vt 0.695385 1.000000
vt 0.695385 0.990139
vt 0.731972 0.990139
vt 0.238306 0.911988
vt 0.215927 0.883044
vt 0.246107 0.905957
vt 0.196661 0.968768
vt 0.196661 0.921850
vt 0.700746 0.166561
vt 0.796428 0.771500
vt 0.796428 0.818419
vt 0.466809 0.000000
vt 0.433428 0.032971
vt 0.416118 0.871963
vt 0.429835 0.871963
vt 0.424237 0.881825
vt 0.248616 0.978630
vt 0.240498 0.968769
vt 0.254214 0.968769
vt 0.424237 0.815183
vt 0.429835 0.825045
vt 0.416118 0.825045
vt 0.254214 0.921850
vt 0.240498 0.921850
vt 0.248616 0.911988
vt 0.850769 0.191426
vt 0.842650 0.248206
vt 0.837052 0.238345
vt 0.850769 0.238345
vt 0.743867 0.054547
vt 0.710896 0.021166
vt 0.768559 1.000000
vt 0.731972 1.000000
vt 0.731972 0.990139
vt 0.768559 0.990139
vt 0.796428 0.828280
vt 0.868184 0.828281
vt 0.868184 0.973350
vt 0.796428 0.923868
vt 0.600830 0.805441
vt 0.578451 0.776496
vt 0.586253 0.770464
vt 0.608632 0.799409
vt 0.796428 0.629556
vt 0.677588 0.746094
vt 0.685389 0.889208
vt 0.613740 0.893114
vt 0.887498 0.341730
vt 0.959254 0.341730
vt 0.959254 0.515176
vt 0.887498 0.465694
vt 0.731972 0.893114
vt 0.768559 0.893115
vt 0.768559 0.902976
vt 0.731972 0.902976
vt 0.663010 0.711118
vt 0.685389 0.740062
vt 0.655208 0.717150
vt 0.284334 0.921850
vt 0.284334 0.968768
vt 0.765296 0.191426
vt 0.765296 0.238344
vt 0.765296 0.033381
vt 0.732325 0.000000
vt 0.881899 0.530592
vt 0.005598 0.892324
vt -0.000000 0.900442
vt 0.000000 0.758498
vt 0.005598 0.768360
vt 0.410520 0.731115
vt 0.416118 0.722997
vt 0.416118 0.864941
vt 0.410520 0.855080
vt 0.338764 0.681634
vt 0.338764 0.855080
vt 0.077354 0.941806
vt 0.077354 0.768360
vt 0.108989 0.733898
vt 0.180638 0.729992
vt 0.416149 0.683022
vt 0.428846 0.681634
vt 0.428846 0.815183
vt 0.416118 0.814107
vt 0.433428 0.800320
vt 0.505184 0.849802
vt 0.505184 0.945390
vt 0.433428 0.945390
vt 0.326036 0.729992
vt 0.338764 0.731068
vt 0.338733 0.862153
vt 0.326036 0.863542
vt 0.576940 0.945390
vt 0.505184 0.895908
vt 0.505184 0.800320
vt 0.576940 0.800320
vt 0.077354 0.758498
vt 0.090082 0.759575
vt 0.090052 0.890660
vt 0.077354 0.892048
vt 0.685389 0.715024
vt 0.757038 0.711118
vt 0.090112 0.759887
vt 0.102810 0.758499
vt 0.102810 0.892048
vt 0.090082 0.890972
vt 0.765296 0.049482
vt 0.881900 0.331868
vt 0.881900 0.473812
vt 0.977453 0.758830
vt 0.956299 0.737389
vt 0.956012 0.536330
vt 0.977453 0.515176
vt 0.185580 0.510019
vt 0.185580 0.653401
vt 0.108989 0.729992
vt 0.108989 0.433428
vt 0.262172 0.433428
vt 0.262172 0.729992
vt 0.185580 0.653401
vt 0.185580 0.510020
vt 0.433428 0.566094
vt 0.433428 0.422713
vt 0.510019 0.346121
vt 0.510019 0.642686
vt 0.338764 0.433428
vt 0.338764 0.729992
vt 0.262172 0.653400
vt 0.262172 0.510019
vt 0.578451 0.386047
vt 0.578451 0.331868
vt 0.619008 0.331868
vt 0.619008 0.386047
vt 0.433428 0.656939
vt 0.576809 0.656939
vt 0.576809 0.800320
vt 0.433428 0.800320
vt 0.765296 0.290199
vt 0.829384 0.248206
vt 0.829384 0.318106
vt 0.850769 -0.000000
vt 0.850769 0.141944
vt 0.983119 0.243654
vt 0.961965 0.222213
vt 0.961678 0.021154
vt 0.983119 0.000000
vt 0.959254 0.271522
vt 0.980408 0.292963
vt 0.980695 0.494022
vt 0.959254 0.515176
vt 0.977453 0.515176
vt 0.998607 0.536617
vt 0.998894 0.737676
vt 0.977453 0.758830
vt 0.922457 0.821013
vt 0.956012 0.718700
vt 0.956012 0.922225
vt 0.956012 0.616388
vt 0.922457 0.718700
vt 0.922457 0.515176
vt 0.961678 0.101212
vt 0.928123 0.203524
vt 0.928123 0.000000
vt -0.000000 0.379249
vt 0.000000 0.054178
vt 0.054178 -0.000000
vt 0.379249 0.000000
vt 0.433428 0.054178
vt 0.433428 0.379249
vt 0.379249 0.433428
vt 0.054178 0.433428
vt 0.578451 0.331868
vt 0.578451 0.656939
vt 0.687439 0.400300
vt 0.687439 0.696865
vt 0.619008 0.711118
vt 0.796428 0.400300
vt 0.796428 0.696865
vt 0.727996 0.711118
vt 0.727996 0.386047
vt 0.338764 0.864941
vt 0.397231 0.903251
vt 0.338764 0.941561
vt 0.963013 0.976403
vt 0.922457 0.976403
vt 0.922457 0.922225
vt 0.963013 0.922225
vt 0.578451 0.711118
vt 0.687439 0.711118
vt 0.687439 0.386047
vt 0.687439 0.331868
vt 0.727996 0.331868
vt 0.068432 0.433428
vt 0.108989 0.433428
vt 0.108989 0.758498
vt 0.068432 0.758498
vt 0.636918 0.969734
vt 0.578451 0.931424
vt 0.636918 0.893114
vt 0.284334 0.911989
vt 0.324891 0.911988
vt 0.324891 0.966167
vt 0.284334 0.966167
vt 0.922457 0.515176
vt 0.922457 0.840247
vt 0.881900 0.840247
vt 0.881900 0.515176
vt 0.636918 0.969734
vt 0.636918 0.893114
vt 0.695385 0.931424
vt 0.000000 0.744245
vt -0.000000 0.447681
s 1
usemtl Material.003
f 1/1/1 2/2/1 3/3/1
f 4/4/2 5/5/2 6/6/2
f 7/7/3 8/8/3 9/9/3
f 10/10/4 11/11/4 12/12/4
f 13/13/5 14/14/5 15/15/5
f 16/16/6 17/17/6 18/18/6
f 19/19/7 20/20/7 21/21/7
f 22/22/8 23/23/8 24/24/8
f 6/25/9 1/26/9 3/27/9 4/28/9
f 70/29/10 72/30/10 19/19/10 21/21/10
f 9/31/11 10/32/11 12/33/11 7/34/11
f 37/35/12 39/36/13 17/37/14 16/38/12
f 1/1/15 9/9/15 8/8/15 2/2/15
f 10/10/16 6/6/16 5/5/16 11/11/16
f 43/39/17 45/40/17 22/22/17 24/24/17
f 65/41/18 64/42/19 13/13/19 15/15/20
f 14/14/21 18/18/21 17/17/21 15/15/21
f 20/43/22 14/44/22 13/45/22 21/46/22
f 23/23/23 20/20/23 19/19/23 24/24/23
f 18/47/24 23/48/24 22/49/24 16/50/24
f 10/10/25 9/51/25 1/52/25 6/6/25
f 3/27/26 21/46/26 13/45/26 4/28/26
s 0
f 67/53/27 97/54/27 99/55/27 72/30/27
s 1
f 5/56/28 15/15/28 17/17/28 11/57/28
f 22/49/29 7/34/29 12/33/29 16/50/29
f 14/58/30 20/20/30 23/23/30 18/59/30
f 25/60/31 26/61/31 27/62/31
f 28/63/32 29/64/32 30/65/32
f 31/66/33 32/67/33 33/68/33
f 34/69/34 35/70/34 36/71/34
f 37/35/35 38/72/35 39/36/35
f 40/73/36 41/74/36 42/75/36
f 43/39/37 44/76/37 45/40/37
f 46/77/38 47/78/38 48/79/38
f 30/80/39 25/81/39 27/82/39 28/83/39
f 26/84/40 43/85/41 24/86/41 8/87/42
f 33/88/43 34/89/43 36/90/43 31/91/43
f 85/92/44 87/93/45 41/94/46 40/95/44
f 25/60/47 33/68/47 32/67/47 26/61/47
f 34/69/48 30/65/48 29/64/48 35/70/48
f 91/96/49 93/97/50 46/77/50 48/79/51
f 28/98/52 37/99/53 16/100/53 12/101/54
f 38/72/55 42/75/55 41/74/55 39/36/55
f 44/102/56 38/103/56 37/104/56 45/105/56
f 47/78/57 44/76/57 43/39/57 48/79/57
f 42/106/58 47/107/58 46/108/58 40/109/58
f 34/69/59 33/110/59 25/111/59 30/65/59
f 27/82/60 45/105/60 37/104/60 28/83/60
s 0
f 19/19/61 99/55/61 103/112/61 24/24/61
s 1
f 29/113/62 39/36/62 41/74/62 35/114/62
f 46/108/63 31/91/63 36/90/63 40/109/63
f 38/115/64 44/76/64 47/78/64 42/116/64
f 49/117/65 50/118/65 51/119/65
f 52/120/66 53/121/66 54/122/66
f 55/123/67 56/124/67 57/125/67
f 58/126/68 59/127/68 60/128/68
f 61/129/69 62/130/69 63/131/69
f 64/132/70 65/133/70 66/134/70
f 67/53/71 68/135/71 69/136/71
f 70/29/72 71/137/72 72/30/72
f 54/138/73 49/139/73 51/140/73 52/141/73
f 94/142/74 96/143/74 67/53/74 69/136/74
f 57/144/75 58/145/75 60/146/75 55/147/75
f 59/148/76 65/41/18 15/15/20 5/56/77
f 49/117/78 57/125/78 56/124/78 50/118/78
f 58/126/79 54/122/79 53/121/79 59/127/79
f 55/147/80 70/149/81 21/150/81 3/151/82
f 89/152/83 88/153/84 61/129/84 63/131/85
f 62/130/86 66/134/86 65/133/86 63/131/86
f 68/154/87 62/155/87 61/156/87 69/157/87
f 71/137/88 68/135/88 67/53/88 72/30/88
f 66/158/89 71/159/89 70/149/89 64/160/89
f 58/126/90 57/161/90 49/162/90 54/122/90
f 51/140/63 69/157/63 61/156/63 52/141/63
s 0
f 43/39/91 103/112/91 101/163/91 48/79/91
s 1
f 53/164/92 63/131/92 65/133/92 59/165/92
f 70/149/60 55/147/60 60/146/60 64/160/60
f 62/166/93 68/135/93 71/137/93 66/167/93
f 73/168/94 74/169/94 75/170/94
f 76/171/95 77/172/95 78/173/95
f 79/174/96 80/175/96 81/176/96
f 82/177/97 83/178/97 84/179/97
f 85/92/98 86/180/98 87/93/98
f 88/181/99 89/182/99 90/183/99
f 91/96/100 92/184/100 93/97/100
f 94/142/101 95/185/101 96/143/101
f 78/186/102 73/187/102 75/188/102 76/189/102
f 74/190/103 91/191/104 48/192/105 32/193/106
f 81/194/107 82/195/107 84/196/107 79/197/107
f 83/198/108 89/152/83 63/131/85 53/164/109
f 73/168/110 81/176/110 80/175/110 74/169/110
f 82/177/111 78/173/111 77/172/111 83/178/111
f 79/197/112 94/199/113 69/200/113 51/201/114
f 76/202/115 85/203/116 40/204/116 36/205/117
f 86/180/118 90/183/118 89/182/118 87/93/118
f 92/206/119 86/207/119 85/208/119 93/209/119
f 95/185/120 92/184/120 91/96/120 96/143/120
f 90/210/121 95/211/121 94/199/121 88/212/121
f 82/177/122 81/213/122 73/214/122 78/173/122
f 75/188/29 93/209/29 85/208/29 76/189/29
s 0
f 91/96/123 101/163/123 97/54/123 96/143/123
s 1
f 77/215/124 87/93/124 89/182/124 83/216/124
f 94/199/26 79/197/26 84/196/26 88/212/26
f 86/217/125 92/184/125 95/185/125 90/218/125
f 39/36/13 29/113/126 11/219/127 17/37/14
f 60/220/128 59/221/76 5/222/77 4/223/129
f 84/224/130 83/225/108 53/226/109 52/227/131
f 88/228/132 84/224/130 52/227/131 61/229/132
f 64/230/133 60/220/128 4/223/129 13/231/133
f 93/232/134 75/233/135 31/91/136 46/108/134
f 75/234/135 74/235/103 32/236/106 31/237/136
f 96/238/137 80/239/138 50/240/139 67/241/137
f 80/242/138 79/243/112 51/244/114 50/245/139
f 72/246/140 56/247/141 2/248/142 19/249/140
f 56/250/141 55/251/80 3/252/82 2/253/142
f 45/254/143 27/255/144 7/34/145 22/49/143
f 27/256/144 26/257/40 8/258/42 7/259/145
f 87/93/45 77/215/146 35/260/147 41/94/46
f 77/261/146 76/202/115 36/205/117 35/262/147
f 40/263/148 46/264/148 93/265/148 85/266/148
s 0
f 110/291/158 120/292/158 102/293/158
s 1
f 29/294/126 28/98/52 12/101/54 11/295/127
f 16/296/159 22/297/159 45/298/159 37/299/159
f 64/300/160 70/301/160 21/302/160 13/303/160
f 88/304/161 94/305/161 69/306/161 61/307/161
f 103/308/162 43/309/163 24/310/164
f 99/311/165 19/312/166 72/313/167
f 97/314/168 67/315/169 96/316/170
f 101/163/171 91/96/172 48/79/173
s 0
f 98/327/184 100/328/184 109/329/184 117/286/184
f 117/361/190 118/362/190 98/363/190
s 1
usemtl Material.003
f 97/267/149 99/268/150 100/269/150 98/270/149
f 98/271/149 102/272/151 101/273/151 97/274/149
f 99/275/150 103/276/152 104/277/152 100/278/150
f 102/279/151 104/280/152 103/281/152 101/282/151
f 116/283/153 107/284/154 118/285/155 117/286/156
f 101/287/157 103/288/157 99/289/157 97/290/157
f 115/317/174 107/318/154 116/319/153 108/320/175 105/321/176 113/322/177 106/323/178 114/324/179
f 104/277/180 111/325/181 119/326/182 100/278/183
f 102/330/185 98/331/185 118/332/185 110/333/185
f 109/334/186 100/335/183 119/336/182
f 119/337/182 105/338/176 108/339/175 109/340/186
f 117/286/156 109/329/186 108/341/175 116/283/153
f 118/332/155 107/342/154 115/343/174 110/333/187
f 115/343/174 114/344/179 120/345/188 110/333/187
f 120/346/188 114/347/179 106/348/178 112/349/189
f 111/350/181 104/351/180 112/352/189
f 112/353/189 106/354/178 113/355/177 111/356/181
f 119/357/182 111/358/181 113/359/177 105/360/176
f 104/364/180 102/365/191 120/346/192 112/349/189
