# Blender 4.5.2 LTS
# www.blender.org
mtllib wallTile.mtl
o Cube
v -0.216657 -13.039291 -5.199702
v -0.216657 -12.966219 -5.272775
v -0.216657 -12.966219 5.272777
v -0.216657 -13.039291 5.199704
v -0.216657 0.124673 5.272776
v -0.216657 0.197745 5.199703
v -0.216657 0.197745 -5.199703
v -0.216657 0.124672 -5.272776
v 1.693236 -12.966219 -5.272775
v 1.693236 -13.039291 -5.199702
v 1.693236 -13.039291 5.199704
v 1.693236 -12.966219 5.272777
v 1.693236 0.124673 5.272776
v 1.693236 0.197745 5.199703
v 1.693236 0.197745 -5.199703
v 1.693236 0.124672 -5.272776
vn -1.0000 -0.0000 -0.0000
vn -0.7405 0.6379 -0.2114
vn -0.5063 0.3015 -0.8079
vn -0.5003 0.8116 0.3015
vn -0.5064 0.3015 0.8079
vn -0.0000 -0.9239 -0.3827
vn -0.0000 -0.3827 -0.9239
vn 1.0000 -0.0000 -0.0000
vn 0.6303 0.2971 -0.7173
vn 0.6303 0.7173 -0.2971
vn 0.6303 0.7173 0.2971
vn 0.6303 0.2971 0.7173
vn -0.0000 -0.3827 0.9239
vn -0.0000 -0.9239 0.3827
vt 0.390822 0.484479
vt 0.388208 0.487093
vt 0.388208 0.013621
vt 0.390822 0.016235
vt 0.016235 0.013621
vt 0.016235 0.487093
vt 0.013621 0.484479
vt 0.013621 0.016235
vt 0.986379 0.013621
vt 0.986379 0.016235
vt 0.918064 0.016235
vt 0.918064 0.013621
vt 0.792651 0.013621
vt 0.795265 0.016235
vt 0.795265 0.484479
vt 0.792651 0.487093
vt 0.420678 0.487093
vt 0.418064 0.484479
vt 0.418064 0.016235
vt 0.420678 0.013621
vt 0.986379 0.484479
vt 0.918064 0.484479
vt 0.822508 0.611441
vt 0.822508 0.348416
vt 0.890822 0.348416
vt 0.890822 0.611441
vt 0.822508 0.344719
vt 0.822508 0.013621
vt 0.890822 0.013621
vt 0.890822 0.344719
vt 0.081936 0.514335
vt 0.081936 0.518032
vt 0.013621 0.518032
vt 0.013621 0.514335
vt 0.986379 0.487093
vt 0.918064 0.487093
vt 0.081936 0.781057
vt 0.013621 0.781057
s 1
usemtl Material.002
f 2/1/1 1/2/1 7/3/2 8/4/3
f 6/5/4 7/3/2 1/2/1 4/6/1
f 4/6/1 3/7/1 5/8/5 6/5/4
f 1/9/6 2/10/7 9/11/7 10/12/6
f 10/13/8 9/14/8 16/15/9 15/16/10 14/17/11 13/18/12 12/19/8 11/20/8
f 2/10/7 8/21/3 16/22/9 9/11/7
f 7/23/2 6/24/4 14/25/11 15/26/10
f 5/27/5 3/28/13 12/29/13 13/30/12
f 3/31/13 4/32/14 11/33/14 12/34/13
f 8/21/3 7/35/2 15/36/10 16/22/9
f 4/32/14 1/37/6 10/38/6 11/33/14
f 6/24/4 5/27/5 13/30/12 14/25/11
