# Blender 4.5.1 LTS
# www.blender.org
mtllib base.mtl
o Cube.003
v -0.102894 -0.118538 -0.555599
v -0.102894 -0.055245 -0.543971
v -0.148398 -0.081077 -0.581432
v -0.148398 -0.176919 -0.720417
v -0.102894 -0.202752 -0.757877
v -0.102894 -0.214380 -0.694584
v 0.159110 -0.081077 -0.581432
v 0.113606 -0.055245 -0.543971
v 0.113606 -0.118538 -0.555599
v 0.113606 -0.214380 -0.694584
v 0.113606 -0.202752 -0.757877
v 0.159110 -0.176919 -0.720417
v -0.148398 0.154190 -0.948745
v -0.102894 0.191651 -0.974577
v -0.102894 0.128358 -0.986206
v 0.159110 0.154190 -0.948745
v 0.113606 0.128358 -0.986206
v 0.113606 0.191651 -0.974577
v -0.102894 0.275864 -0.772300
v -0.102894 0.287493 -0.835592
v -0.148398 0.250032 -0.809760
v 0.159110 0.250032 -0.809760
v 0.113606 0.287493 -0.835592
v 0.113606 0.275864 -0.772300
v 1.000000 -0.571266 1.000000
v -1.000000 -0.571266 1.000000
v 1.000000 -0.571266 -1.000000
v -1.000000 -0.571266 -1.000000
v -1.000000 -0.384122 1.000000
v -1.000000 -0.384122 -1.000000
v 1.000000 -0.384122 1.000000
v 1.000000 -0.384122 -1.000000
v 0.555599 -0.118538 -0.102894
v 0.543971 -0.055245 -0.102894
v 0.581432 -0.081077 -0.148398
v 0.720417 -0.176919 -0.148398
v 0.757877 -0.202752 -0.102894
v 0.694584 -0.214380 -0.102894
v 0.581432 -0.081077 0.159110
v 0.543971 -0.055245 0.113606
v 0.555599 -0.118538 0.113606
v 0.694584 -0.214380 0.113606
v 0.757877 -0.202752 0.113606
v 0.720417 -0.176919 0.159110
v 0.948745 0.154190 -0.148398
v 0.974577 0.191650 -0.102894
v 0.986206 0.128358 -0.102894
v 0.948745 0.154190 0.159110
v 0.986206 0.128358 0.113606
v 0.974577 0.191650 0.113606
v 0.772300 0.275864 -0.102894
v 0.835592 0.287493 -0.102894
v 0.809760 0.250032 -0.148398
v 0.809760 0.250032 0.159110
v 0.835592 0.287493 0.113606
v 0.772299 0.275864 0.113606
v -0.555599 -0.118538 0.102894
v -0.543971 -0.055245 0.102894
v -0.581432 -0.081077 0.148398
v -0.720417 -0.176919 0.148398
v -0.757877 -0.202752 0.102894
v -0.694584 -0.214380 0.102895
v -0.581432 -0.081077 -0.159110
v -0.543971 -0.055245 -0.113606
v -0.555599 -0.118538 -0.113606
v -0.694584 -0.214380 -0.113606
v -0.757877 -0.202752 -0.113606
v -0.720417 -0.176919 -0.159110
v -0.948745 0.154190 0.148398
v -0.974577 0.191650 0.102895
v -0.986206 0.128358 0.102895
v -0.948745 0.154190 -0.159110
v -0.986206 0.128358 -0.113606
v -0.974577 0.191650 -0.113606
v -0.772299 0.275864 0.102895
v -0.835592 0.287493 0.102895
v -0.809760 0.250032 0.148398
v -0.809760 0.250032 -0.159110
v -0.835592 0.287493 -0.113606
v -0.772300 0.275864 -0.113606
v 0.102894 -0.118538 0.555600
v 0.102894 -0.055245 0.543971
v 0.148398 -0.081077 0.581432
v 0.148398 -0.176919 0.720417
v 0.102895 -0.202752 0.757877
v 0.102895 -0.214380 0.694585
v -0.159110 -0.081077 0.581432
v -0.113606 -0.055245 0.543971
v -0.113606 -0.118538 0.555600
v -0.113606 -0.214380 0.694585
v -0.113606 -0.202752 0.757877
v -0.159110 -0.176919 0.720417
v 0.148399 0.154190 0.948745
v 0.102895 0.191650 0.974577
v 0.102895 0.128358 0.986206
v -0.159110 0.154190 0.948745
v -0.113606 0.128358 0.986206
v -0.113606 0.191650 0.974578
v 0.102895 0.275864 0.772300
v 0.102895 0.287493 0.835592
v 0.148398 0.250032 0.809760
v -0.159110 0.250032 0.809760
v -0.113606 0.287493 0.835593
v -0.113606 0.275864 0.772300
v -0.330807 0.078039 0.330807
v -0.684231 -0.068354 0.684231
v -0.330807 0.078039 -0.330807
v -0.684231 -0.068354 -0.684231
v 0.330807 0.078040 0.330807
v 0.684231 -0.068353 0.684231
v 0.330807 0.078039 -0.330807
v 0.684231 -0.068354 -0.684231
vn -0.5774 -0.1475 0.8031
vn -0.5774 -0.8031 -0.1475
vn 0.5774 -0.1475 0.8031
vn 0.5774 -0.8031 -0.1475
vn -0.5774 0.1475 -0.8031
vn 0.5774 0.1475 -0.8031
vn -0.5773 0.8031 0.1475
vn 0.5773 0.8031 0.1475
vn -0.7071 -0.5821 0.4014
vn 0.1606 0.9734 0.1632
vn -0.2828 0.9151 -0.2874
vn -0.2824 0.9153 -0.2871
vn 0.7071 -0.5821 0.4014
vn 0.6967 -0.2023 -0.6882
vn 0.6576 -0.3819 -0.6494
vn 0.6929 -0.2292 -0.6836
vn -0.0000 -0.1807 0.9835
vn -0.0000 -0.9835 -0.1807
vn 0.2874 0.9151 -0.2828
vn -0.1632 0.9734 0.1606
vn -0.1679 0.9722 0.1632
vn -0.6494 -0.3819 -0.6576
vn -0.6882 -0.2023 -0.6967
vn -0.6497 -0.3787 -0.6591
vn -0.0000 0.1807 -0.9835
vn -0.7071 0.5821 -0.4014
vn -0.0000 0.9835 0.1807
vn 0.7071 0.5821 -0.4014
vn -0.0000 -0.8232 0.5677
vn -1.0000 -0.0000 -0.0000
vn -0.0000 0.5677 0.8232
vn -0.0000 -0.5677 -0.8232
vn 1.0000 -0.0000 -0.0000
vn -0.0000 0.8232 -0.5677
vn -0.8031 -0.1475 -0.5774
vn 0.1475 -0.8031 -0.5774
vn -0.8031 -0.1475 0.5774
vn 0.1475 -0.8031 0.5774
vn 0.8031 0.1476 -0.5773
vn 0.8031 0.1476 0.5773
vn -0.1475 0.8031 -0.5773
vn -0.1475 0.8031 0.5774
vn -0.4014 -0.5821 -0.7071
vn -0.6991 -0.2038 0.6854
vn -0.7020 -0.1949 0.6850
vn -0.4014 -0.5821 0.7071
vn 0.6882 -0.2023 0.6967
vn 0.6494 -0.3819 0.6576
vn 0.6836 -0.2292 0.6929
vn -0.9835 -0.1807 -0.0000
vn 0.1807 -0.9835 -0.0000
vn 0.2828 0.9151 0.2874
vn -0.1606 0.9734 -0.1632
vn -0.1632 0.9722 -0.1679
vn -0.6405 0.4398 0.6296
vn -0.6751 0.3221 0.6637
vn -0.6797 0.3030 0.6679
vn 0.9835 0.1807 -0.0000
vn 0.4014 0.5821 -0.7071
vn -0.1807 0.9835 -0.0000
vn 0.4014 0.5821 0.7071
vn -0.5677 -0.8232 -0.0000
vn -0.0000 -0.0000 -1.0000
vn -0.8232 0.5677 -0.0000
vn 0.8232 -0.5677 -0.0000
vn -0.0000 -0.0000 1.0000
vn 0.5677 0.8232 -0.0000
vn 0.8031 -0.1475 0.5774
vn -0.1475 -0.8030 0.5774
vn 0.8031 -0.1475 -0.5774
vn -0.1475 -0.8031 -0.5774
vn -0.8030 0.1475 0.5774
vn -0.8031 0.1476 -0.5773
vn 0.1475 0.8030 0.5774
vn 0.1475 0.8031 -0.5773
vn 0.4014 -0.5821 0.7071
vn 0.1632 0.9734 -0.1606
vn -0.2874 0.9151 0.2828
vn -0.2871 0.9153 0.2824
vn 0.4014 -0.5821 -0.7071
vn -0.6135 -0.4887 -0.6203
vn -0.6067 -0.5015 -0.6168
vn 0.9835 -0.1807 -0.0000
vn -0.1807 -0.9835 -0.0000
vn -0.3004 -0.9038 -0.3048
vn -0.6281 -0.4399 -0.6419
vn -0.2904 -0.9094 -0.2979
vn -0.6576 -0.3819 0.6494
vn -0.6967 -0.2023 0.6883
vn -0.6591 -0.3787 0.6497
vn -0.9835 0.1807 -0.0000
vn -0.4014 0.5821 0.7071
vn 0.1807 0.9835 -0.0000
vn -0.4014 0.5821 -0.7071
vn 0.5677 -0.8232 -0.0000
vn 0.8232 0.5677 -0.0000
vn -0.8232 -0.5677 -0.0000
vn -0.5677 0.8232 -0.0000
vn 0.5774 -0.1475 -0.8031
vn 0.5774 -0.8030 0.1475
vn -0.5774 -0.1475 -0.8031
vn -0.5774 -0.8031 0.1475
vn 0.5773 0.1475 0.8031
vn -0.5774 0.1475 0.8031
vn 0.5774 0.8030 -0.1475
vn -0.5773 0.8031 -0.1475
vn 0.7071 -0.5821 -0.4014
vn -0.6854 -0.2038 -0.6991
vn -0.6850 -0.1949 -0.7020
vn -0.7071 -0.5821 -0.4014
vn -0.6203 -0.4887 0.6135
vn -0.6168 -0.5015 0.6067
vn -0.0000 -0.1807 -0.9835
vn -0.0000 -0.9835 0.1807
vn -0.3048 -0.9038 0.3004
vn -0.6419 -0.4399 0.6281
vn -0.2979 -0.9094 0.2904
vn -0.6296 0.4398 -0.6405
vn -0.6637 0.3221 -0.6751
vn -0.6680 0.3030 -0.6797
vn -0.0000 0.1807 0.9835
vn 0.7071 0.5821 0.4014
vn -0.0000 0.9835 -0.1807
vn -0.7071 0.5821 0.4014
vn -0.0000 -0.8232 -0.5677
vn -0.0000 0.5677 -0.8232
vn -0.0000 -0.5677 0.8232
vn -0.0000 0.8232 0.5677
vn -0.0000 -1.0000 -0.0000
vn 0.6591 -0.3787 -0.6497
vn 0.6203 -0.4887 -0.6135
vn 0.6679 0.3030 0.6797
vn 0.6637 0.3221 0.6751
vn 0.6797 0.3030 -0.6679
vn 0.6751 0.3221 -0.6637
vn 0.6405 0.4398 -0.6296
vn 0.6407 0.4359 -0.6321
vn 0.6296 0.4398 0.6405
vn 0.6321 0.4359 0.6407
vn 0.6281 -0.4399 0.6419
vn 0.3004 -0.9038 0.3048
vn 0.6314 -0.4354 0.6417
vn 0.2904 -0.9094 0.2979
vn 0.6991 -0.2038 -0.6854
vn 0.1679 0.9722 -0.1632
vn 0.7020 -0.1949 -0.6850
vn 0.6854 -0.2038 0.6991
vn 0.1632 0.9722 0.1679
vn 0.6850 -0.1949 0.7020
vn 0.6419 -0.4399 -0.6281
vn 0.3048 -0.9038 -0.3004
vn 0.6417 -0.4354 -0.6314
vn 0.2979 -0.9094 -0.2904
vn 0.6497 -0.3787 0.6591
vn 0.6135 -0.4887 0.6203
vn 0.6067 -0.5015 0.6168
vn 0.4918 0.7139 0.4985
vn 0.4882 0.7180 0.4961
vn 0.4921 0.7136 0.4987
vn -0.1988 0.9597 -0.1988
vn -0.1987 0.9597 0.1988
vn -0.1988 0.9597 0.1988
vn 0.1988 0.9597 0.1988
vn 0.1988 0.9597 -0.1987
vn 0.1988 0.9597 -0.1988
vn -0.0000 0.7071 0.7071
vn -0.7071 0.7071 -0.0000
vn -0.0000 1.0000 -0.0000
vn -0.0000 0.7071 -0.7071
vn 0.7071 0.7071 -0.0000
vn 0.6168 -0.5015 -0.6067
vn 0.4985 0.7139 -0.4918
vn 0.4961 0.7180 -0.4882
vn 0.4987 0.7135 -0.4921
vn -0.4918 0.7139 -0.4985
vn -0.4882 0.7180 -0.4961
vn -0.4921 0.7135 -0.4987
vn -0.4985 0.7139 0.4918
vn -0.4961 0.7180 0.4882
vn -0.4987 0.7136 0.4921
vn 0.2871 0.9153 -0.2824
vn -0.6836 -0.2292 -0.6929
vn 0.2824 0.9153 0.2871
vn -0.6407 0.4359 0.6321
vn -0.6314 -0.4354 -0.6417
vn -0.6929 -0.2292 0.6836
vn -0.6417 -0.4354 0.6314
vn -0.6321 0.4359 -0.6407
vn 0.4876 0.7187 0.4956
vn 0.4956 0.7187 -0.4876
vn -0.4876 0.7187 -0.4956
vn -0.4956 0.7187 0.4876
vt 0.905843 0.628962
vt 0.918843 0.628962
vt 0.913537 0.638308
vt 0.383046 0.821541
vt 0.390740 0.830887
vt 0.377740 0.830887
vt 0.913537 0.575150
vt 0.918843 0.584496
vt 0.905843 0.584496
vt 0.377740 0.875353
vt 0.390740 0.875353
vt 0.383046 0.884699
vt 0.697704 0.747223
vt 0.705398 0.756569
vt 0.692398 0.756569
vt 0.697704 0.810381
vt 0.692398 0.801035
vt 0.705398 0.801035
vt 0.253690 0.695733
vt 0.262825 0.704982
vt 0.252447 0.707774
vt 0.297382 0.663392
vt 0.294461 0.673734
vt 0.285326 0.664486
vt 0.786573 0.410771
vt 0.821247 0.420116
vt 0.786573 0.420116
vt 0.060805 0.696096
vt 0.061899 0.708152
vt 0.101348 0.835813
vt 0.072745 0.814098
vt 0.080139 0.808381
vt 0.764380 0.063158
vt 0.769685 0.235231
vt 0.764380 0.227537
vt 0.297004 0.472844
vt 0.284963 0.471601
vt 0.692398 0.575150
vt 0.786573 0.512069
vt 0.821247 0.502723
vt 0.821247 0.512069
vt 0.021209 0.897773
vt 0.007394 0.864625
vt 0.028603 0.892057
vt 0.349195 0.875353
vt 0.986848 0.584496
vt 0.986847 0.628962
vt 0.624393 0.801035
vt 0.624393 0.756569
vt 0.093954 0.841529
vt 0.314520 0.694044
vt 0.282884 0.725291
vt 0.858035 0.289043
vt 0.871034 0.289043
vt 0.865729 0.298389
vt 0.398433 0.884699
vt 0.390740 0.875353
vt 0.403739 0.875353
vt 0.865729 0.235231
vt 0.871034 0.244577
vt 0.858035 0.244577
vt 0.403739 0.830887
vt 0.390740 0.830887
vt 0.398433 0.821541
vt 0.756687 0.053812
vt 0.769686 0.053812
vt 0.764380 0.000000
vt 0.769686 0.009346
vt 0.756687 0.009346
vt 0.294211 0.462466
vt 0.252622 0.427909
vt 0.262964 0.430830
vt 0.253715 0.439965
vt 0.821248 0.410771
vt 0.855922 0.420117
vt 0.821248 0.420117
vt 0.939039 0.289043
vt 0.871034 0.379634
vt 0.202696 0.835813
vt 0.174093 0.814098
vt 0.181487 0.808381
vt 0.778709 0.747223
vt 0.773403 0.575150
vt 0.778709 0.582844
vt 0.062073 0.428287
vt 0.060831 0.440328
vt 0.778709 0.819727
vt 0.710704 0.937211
vt 0.710704 0.819727
vt 0.821248 0.512069
vt 0.855922 0.502723
vt 0.855922 0.512069
vt 0.122557 0.897773
vt 0.108742 0.864625
vt 0.129951 0.892057
vt 0.432285 0.830887
vt 0.939039 0.244577
vt 0.837691 0.009346
vt 0.837691 0.053812
vt 0.195302 0.841529
vt 0.283273 0.410771
vt 0.314520 0.442407
vt 0.918695 0.137486
vt 0.905696 0.137486
vt 0.911001 0.128140
vt 0.466136 0.821541
vt 0.473830 0.830887
vt 0.460830 0.830887
vt 0.911001 0.191298
vt 0.905696 0.181952
vt 0.918695 0.181952
vt 0.460830 0.875353
vt 0.473830 0.875353
vt 0.466136 0.884699
vt 0.859713 0.747223
vt 0.867407 0.756569
vt 0.854407 0.756569
vt 0.859713 0.810381
vt 0.854407 0.801035
vt 0.867407 0.801035
vt 0.029558 0.664460
vt 0.020309 0.673595
vt 0.017516 0.663218
vt 0.051556 0.705231
vt 0.858035 0.426529
vt 0.892709 0.435875
vt 0.858035 0.435875
vt 0.029195 0.471575
vt 0.017139 0.472669
vt 0.304044 0.835813
vt 0.275441 0.814098
vt 0.282835 0.808381
vt 0.624393 0.622045
vt 0.202696 0.728992
vt 0.270600 0.725291
vt 0.854408 0.575150
vt 0.858035 0.527827
vt 0.892709 0.518481
vt 0.892709 0.527827
vt 0.223905 0.897773
vt 0.210090 0.864625
vt 0.231299 0.892057
vt 0.432285 0.830887
vt 0.837691 0.181952
vt 0.837691 0.137486
vt 0.786402 0.756569
vt 0.786402 0.801035
vt 0.296650 0.841529
vt 0.031247 0.725291
vt 0.000000 0.693655
vt 0.905843 0.820260
vt 0.918843 0.820260
vt 0.913537 0.829606
vt 0.481523 0.884699
vt 0.473830 0.875353
vt 0.486829 0.875353
vt 0.913537 0.766448
vt 0.918843 0.775794
vt 0.905843 0.775794
vt 0.486829 0.830887
vt 0.473830 0.830887
vt 0.481523 0.821541
vt 0.786402 0.756569
vt 0.773403 0.756569
vt 0.778709 0.810381
vt 0.773403 0.801035
vt 0.786402 0.801035
vt 0.051696 0.431080
vt 0.020060 0.462327
vt 0.314520 0.922839
vt 0.349195 0.913493
vt 0.349195 0.922839
vt 0.986848 0.820260
vt 0.918843 0.910850
vt 0.777896 0.324623
vt 0.764080 0.291475
vt 0.785290 0.318907
vt 0.786403 0.622045
vt 0.858035 0.404012
vt 0.790131 0.407714
vt 0.992006 0.009346
vt 0.924001 0.126830
vt 0.924001 0.009346
vt 0.349195 0.821541
vt 0.314520 0.830887
vt 0.314520 0.821541
vt 0.858035 0.262663
vt 0.829432 0.240948
vt 0.836825 0.235231
vt 0.515374 0.875353
vt 0.314520 0.913493
vt 0.986848 0.775794
vt 0.705398 0.801035
vt 0.705398 0.756569
vt 0.850641 0.268379
vt 0.031636 0.410771
vt 0.000000 0.442018
vt -0.000000 0.410770
vt 0.410770 0.000000
vt 0.410770 0.410770
vt 0.837690 0.188336
vt 0.778709 0.944905
vt 0.784014 0.819727
vt 0.784014 0.937211
vt 0.697704 0.849582
vt 0.692398 0.974760
vt 0.692398 0.857276
vt 0.624393 0.974761
vt 0.624393 0.810381
vt 0.559539 0.410770
vt 0.521102 0.821541
vt 0.521102 0.410770
vt 0.456248 0.410771
vt 0.417811 0.821541
vt 0.417811 0.410771
vt 0.852019 0.819727
vt 0.852019 0.984106
vt 0.905843 0.575150
vt 0.867406 0.985920
vt 0.867407 0.575150
vt 0.379375 0.821541
vt 0.417811 0.410771
vt 0.417811 0.821541
vt 0.101348 0.728992
vt 0.892738 0.427845
vt 0.904772 0.553097
vt 0.892709 0.552078
vt 0.905696 0.046895
vt 0.837691 0.000000
vt 0.904772 0.426529
vt 0.916805 0.551781
vt 0.904772 0.553097
vt 0.918843 0.719552
vt 0.986847 0.766448
vt 0.916834 0.426529
vt 0.928868 0.551781
vt 0.916834 0.553097
vt 0.000000 0.728993
vt 0.852048 0.811697
vt 0.864082 0.936950
vt 0.852019 0.935930
vt 0.705398 0.622045
vt 0.918695 0.134524
vt 0.918695 -0.000000
vt 0.959087 0.445828
vt 0.939039 0.235231
vt 0.939039 0.466148
vt 0.548213 0.137442
vt 0.756687 0.064854
vt 0.684099 0.137442
vt 0.756687 0.345916
vt 0.475625 0.345916
vt 0.475625 0.064854
vt 0.548213 0.273328
vt 0.684099 0.273328
vt 0.624393 0.756687
vt 0.624393 0.475625
vt 0.521102 0.756687
vt 0.521102 0.475625
vt 0.410771 0.000000
vt 0.314520 0.756687
vt 0.379375 0.410771
vt 0.705398 0.944905
vt 0.705398 0.810381
vt 0.979408 0.445828
vt 0.959360 0.235231
vt 0.959360 0.466148
vt 0.786573 0.546604
vt 0.624393 0.410770
vt 0.786573 0.575150
vt 0.979952 0.255551
vt 1.000000 0.466148
vt 1.000000 0.235231
vt 0.821247 0.410771
vt 0.697704 0.582844
vt 0.786573 0.502723
vt -0.000000 0.870342
vt 0.349195 0.830887
vt 0.855922 0.410771
vt 0.939039 0.426529
vt 0.778709 0.984106
vt 0.821248 0.502723
vt 0.101348 0.870341
vt 0.432285 0.875353
vt 0.892709 0.426529
vt 0.859713 0.582844
vt 0.858035 0.518481
vt 0.202696 0.870341
vt 0.432285 0.875353
vt 0.986848 0.957746
vt 0.756687 0.297192
vt 0.992006 0.173725
vt 0.515374 0.830887
vt 0.000000 0.000000
vt 0.778709 0.810381
vt 0.697704 0.984106
vt 0.559539 0.821541
vt 0.456248 0.821541
vt 0.905843 0.985920
vt 0.169252 0.725291
vt 0.904772 0.426529
vt 0.916834 0.427549
vt 0.928896 0.427549
vt 0.067904 0.725291
vt 0.864082 0.810381
vt 0.959360 0.255279
vt 0.410771 0.410770
vt 0.314520 0.475625
vt 0.979680 0.255279
vt 0.652939 0.410770
vt 0.979680 0.446100
s 1
usemtl Material.003
f 1/1/1 2/2/1 3/3/1
f 4/4/2 5/5/2 6/6/2
f 7/7/3 8/8/3 9/9/3
f 10/10/4 11/11/4 12/12/4
f 13/13/5 14/14/5 15/15/5
f 16/16/6 17/17/6 18/18/6
f 19/19/7 20/20/7 21/21/7
f 22/22/8 23/23/8 24/24/8
f 6/25/9 3/26/9 4/27/9
f 80/28/10 21/21/11 78/29/12
f 10/30/13 7/31/13 9/32/13
f 45/33/14 17/34/15 16/35/16
f 9/9/17 2/2/17 1/1/17
f 6/6/18 11/11/18 10/10/18
f 53/36/19 24/24/20 51/37/21
f 73/38/22 13/13/23 15/15/24
f 18/18/25 15/15/25 14/14/25
f 14/39/26 21/40/26 20/41/26
f 20/20/27 24/24/27 23/23/27
f 18/42/28 22/43/28 16/44/28
f 9/45/29 6/6/29 10/10/29
f 21/40/30 4/27/30 3/26/30
f 2/2/31 24/46/31 19/47/31
f 15/15/32 11/48/32 5/49/32
f 22/43/33 12/50/33 16/44/33
f 20/20/34 18/51/34 14/52/34
f 33/53/35 34/54/35 35/55/35
f 36/56/36 37/57/36 38/58/36
f 39/59/37 40/60/37 41/61/37
f 42/62/38 43/63/38 44/64/38
f 45/33/39 46/65/39 47/66/39
f 48/67/40 49/68/40 50/69/40
f 51/37/41 52/70/41 53/36/41
f 54/71/42 55/72/42 56/73/42
f 38/74/43 35/75/43 36/76/43
f 51/77/21 8/78/44 34/54/45
f 42/79/46 39/80/46 41/81/46
f 93/82/47 49/83/48 48/84/49
f 41/61/50 34/54/50 33/53/50
f 38/58/51 43/63/51 42/62/51
f 101/85/52 56/73/53 99/86/54
f 45/87/55 12/88/56 36/89/57
f 50/69/58 47/66/58 46/65/58
f 46/90/59 53/91/59 52/92/59
f 55/72/60 51/37/60 56/73/60
f 50/93/61 54/94/61 48/95/61
f 41/96/62 38/58/62 42/62/62
f 53/91/63 36/76/63 35/75/63
f 34/54/64 56/97/64 51/77/64
f 47/66/65 43/98/65 37/99/65
f 54/94/66 44/100/66 48/95/66
f 52/70/67 50/101/67 46/102/67
f 57/103/68 58/104/68 59/105/68
f 60/106/69 61/107/69 62/108/69
f 63/109/70 64/110/70 65/111/70
f 66/112/71 67/113/71 68/114/71
f 69/115/72 70/116/72 71/117/72
f 72/118/73 73/119/73 74/120/73
f 75/121/74 76/122/74 77/123/74
f 78/29/75 79/124/75 80/28/75
f 62/125/76 59/126/76 60/127/76
f 104/128/77 77/123/78 102/129/79
f 66/130/80 63/131/80 65/132/80
f 67/133/81 15/15/24 5/49/82
f 65/111/83 58/104/83 57/103/83
f 66/112/84 61/107/84 67/113/84
f 63/131/85 21/134/86 3/135/87
f 97/136/88 69/115/89 71/117/90
f 74/120/91 71/117/91 70/116/91
f 70/137/92 77/138/92 76/139/92
f 76/122/93 80/28/93 79/124/93
f 74/140/94 78/141/94 72/142/94
f 66/112/95 57/143/95 62/108/95
f 77/138/66 60/127/66 59/126/66
f 58/104/96 80/144/96 75/145/96
f 61/146/97 73/119/97 67/147/97
f 78/141/63 68/148/63 72/142/63
f 76/122/98 74/149/98 70/150/98
f 81/151/99 82/152/99 83/153/99
f 84/154/100 85/155/100 86/156/100
f 87/157/101 88/158/101 89/159/101
f 90/160/102 91/161/102 92/162/102
f 93/82/103 94/163/103 95/164/103
f 96/165/104 97/166/104 98/167/104
f 99/86/105 100/168/105 101/85/105
f 102/129/106 103/169/106 104/128/106
f 81/170/107 84/171/107 86/172/107
f 99/173/54 40/174/108 82/152/109
f 89/175/110 92/176/110 87/177/110
f 91/178/111 71/117/90 61/146/112
f 89/159/113 82/152/113 81/151/113
f 86/156/114 91/161/114 90/160/114
f 87/177/115 77/179/116 59/180/117
f 93/181/118 44/182/119 84/183/120
f 98/167/121 95/164/121 94/163/121
f 94/184/122 101/185/122 100/186/122
f 100/168/123 104/128/123 103/169/123
f 103/187/124 96/188/124 98/189/124
f 90/160/125 81/190/125 86/156/125
f 101/185/33 84/171/33 83/191/33
f 82/152/126 104/192/126 99/173/126
f 95/164/127 91/193/127 85/194/127
f 102/195/30 92/176/30 96/188/30
f 94/196/128 103/169/128 98/197/128
f 47/66/130 11/201/131 17/34/15
f 67/202/81 4/203/132 68/204/133
f 91/205/111 60/206/134 92/207/135
f 92/207/135 69/208/136 96/209/137
f 68/204/133 13/216/138 72/217/139
f 101/224/140 39/80/141 54/94/142
f 83/225/143 40/226/108 39/227/141
f 88/228/144 75/145/145 104/229/77
f 88/230/144 59/231/117 58/232/146
f 64/233/147 19/47/148 80/234/10
f 64/235/147 3/236/87 2/237/149
f 53/238/150 7/31/151 22/43/152
f 35/239/153 8/240/44 7/241/151
f 95/164/154 43/242/155 49/83/48
f 84/183/120 43/243/155 85/244/156
f 54/245/157 93/246/158 48/247/159
f 36/89/57 11/263/131 37/264/171
f 22/265/172 45/266/173 16/267/174
f 78/268/175 13/269/176 72/270/177
f 102/271/178 69/272/179 96/273/180
f 6/25/9 1/274/9 3/26/9
f 80/28/10 19/19/148 21/21/11
f 10/30/13 12/50/13 7/31/13
f 45/33/14 47/66/130 17/34/15
f 9/9/17 8/8/17 2/2/17
f 6/6/18 5/5/18 11/11/18
f 53/36/19 22/22/181 24/24/20
f 73/38/22 72/275/182 13/13/23
f 18/18/25 17/17/25 15/15/25
f 14/39/26 13/276/26 21/40/26
f 20/20/27 19/19/27 24/24/27
f 18/42/28 23/277/28 22/43/28
f 9/45/29 1/278/29 6/6/29
f 21/40/30 13/276/30 4/27/30
f 2/2/31 8/8/31 24/46/31
f 15/15/32 17/17/32 11/48/32
f 22/43/33 7/31/33 12/50/33
f 20/20/34 23/23/34 18/51/34
f 38/74/43 33/279/43 35/75/43
f 51/77/21 24/280/20 8/78/44
f 42/79/46 44/100/46 39/80/46
f 93/82/47 95/164/154 49/83/48
f 41/61/50 40/60/50 34/54/50
f 38/58/51 37/57/51 43/63/51
f 101/85/52 54/71/183 56/73/53
f 45/87/55 16/281/184 12/88/56
f 50/69/58 49/68/58 47/66/58
f 46/90/59 45/282/59 53/91/59
f 55/72/60 52/70/60 51/37/60
f 50/93/61 55/283/61 54/94/61
f 41/96/62 33/284/62 38/58/62
f 53/91/63 45/282/63 36/76/63
f 34/54/64 40/60/64 56/97/64
f 47/66/65 49/68/65 43/98/65
f 54/94/66 39/80/66 44/100/66
f 52/70/67 55/72/67 50/101/67
f 62/125/76 57/285/76 59/126/76
f 104/128/77 75/121/145 77/123/78
f 66/130/80 68/148/80 63/131/80
f 67/133/81 73/38/22 15/15/24
f 65/111/83 64/110/83 58/104/83
f 66/112/84 62/108/84 61/107/84
f 63/131/85 78/141/185 21/134/86
f 97/136/88 96/286/186 69/115/89
f 74/120/91 73/119/91 71/117/91
f 70/137/92 69/287/92 77/138/92
f 76/122/93 75/121/93 80/28/93
f 74/140/94 79/288/94 78/141/94
f 66/112/95 65/289/95 57/143/95
f 77/138/66 69/287/66 60/127/66
f 58/104/96 64/110/96 80/144/96
f 61/146/97 71/117/97 73/119/97
f 78/141/63 63/131/63 68/148/63
f 76/122/98 79/124/98 74/149/98
f 81/170/107 83/191/107 84/171/107
f 99/173/54 56/290/53 40/174/108
f 89/175/110 90/291/110 92/176/110
f 91/178/111 97/136/88 71/117/90
f 89/159/113 88/158/113 82/152/113
f 86/156/114 85/155/114 91/161/114
f 87/177/115 102/195/187 77/179/116
f 93/181/118 48/292/188 44/182/119
f 98/167/121 97/166/121 95/164/121
f 94/184/122 93/278/122 101/185/122
f 100/168/123 99/86/123 104/128/123
f 103/187/124 102/195/124 96/188/124
f 90/160/125 89/293/125 81/190/125
f 101/185/33 93/278/33 84/171/33
f 82/152/126 88/158/126 104/192/126
f 95/164/127 97/166/127 91/193/127
f 102/195/30 87/177/30 92/176/30
f 94/196/128 100/168/128 103/169/128
f 47/66/130 37/99/171 11/201/131
f 67/202/81 5/295/82 4/203/132
f 91/205/111 61/296/112 60/206/134
f 92/207/135 60/206/134 69/208/136
f 68/204/133 4/203/132 13/216/138
f 101/224/140 83/300/143 39/80/141
f 83/225/143 82/301/109 40/226/108
f 88/228/144 58/104/146 75/145/145
f 88/230/144 87/302/115 59/231/117
f 64/233/147 2/2/149 19/47/148
f 64/235/147 63/303/85 3/236/87
f 53/238/150 35/304/153 7/31/151
f 35/239/153 34/305/45 8/240/44
f 95/164/154 85/194/156 43/242/155
f 84/183/120 44/182/119 43/243/155
f 54/245/157 101/306/189 93/246/158
f 36/89/57 12/88/56 11/263/131
f 22/265/172 53/309/190 45/266/173
f 78/268/175 21/310/191 13/269/176
f 102/271/178 77/311/192 69/272/179
usemtl Material.003
f 25/198/129 28/199/129 27/200/129
f 31/210/66 26/211/66 25/212/66
f 29/213/30 28/214/30 26/215/30
f 30/218/63 27/219/63 28/220/63
f 32/221/33 25/222/33 27/223/33
f 107/248/160 106/249/161 105/250/162
f 110/251/163 105/250/162 106/249/161
f 107/248/160 112/252/164 108/253/160
f 110/251/163 111/254/165 109/255/163
f 106/256/166 31/210/166 110/257/166
f 108/258/167 29/213/167 106/259/167
f 111/254/168 105/250/168 109/255/168
f 112/252/169 30/260/169 108/253/169
f 112/261/170 31/262/170 32/221/170
f 25/198/129 26/294/129 28/199/129
f 31/210/66 29/297/66 26/211/66
f 29/213/30 30/298/30 28/214/30
f 30/218/63 32/299/63 27/219/63
f 32/221/33 31/262/33 25/222/33
f 107/248/160 108/253/160 106/249/161
f 110/251/163 109/255/163 105/250/162
f 107/248/160 111/254/165 112/252/164
f 110/251/163 112/252/164 111/254/165
f 106/256/166 29/297/166 31/210/166
f 108/258/167 30/298/167 29/213/167
f 111/254/168 107/248/168 105/250/168
f 112/252/169 32/307/169 30/260/169
f 112/261/170 110/308/170 31/262/170
