# Blender 4.5.1 LTS
# www.blender.org
mtllib base.mtl
o Cube.003
v -0.102894 -0.118538 -0.555599
v -0.102894 -0.055245 -0.543971
v -0.148398 -0.081077 -0.581432
v -0.148398 -0.176919 -0.720417
v -0.102894 -0.202752 -0.757877
v -0.102894 -0.214380 -0.694584
v 0.159110 -0.081077 -0.581432
v 0.113606 -0.055245 -0.543971
v 0.113606 -0.118538 -0.555599
v 0.113606 -0.214380 -0.694584
v 0.113606 -0.202752 -0.757877
v 0.159110 -0.176919 -0.720417
v -0.148398 0.154190 -0.948745
v -0.102894 0.191651 -0.974577
v -0.102894 0.128358 -0.986206
v 0.159110 0.154190 -0.948745
v 0.113606 0.128358 -0.986206
v 0.113606 0.191651 -0.974577
v -0.102894 0.275864 -0.772300
v -0.102894 0.287493 -0.835592
v -0.148398 0.250032 -0.809760
v 0.159110 0.250032 -0.809760
v 0.113606 0.287493 -0.835592
v 0.113606 0.275864 -0.772300
v 1.000000 -0.571266 1.000000
v -1.000000 -0.571266 1.000000
v 1.000000 -0.571266 -1.000000
v -1.000000 -0.571266 -1.000000
v -0.537838 0.078039 0.537838
v -1.000000 -0.384122 1.000000
v -0.537838 0.078039 -0.537838
v -1.000000 -0.384122 -1.000000
v 0.537838 0.078040 0.537838
v 1.000000 -0.384122 1.000000
v 0.537838 0.078039 -0.537838
v 1.000000 -0.384122 -1.000000
v 0.555599 -0.118538 -0.102894
v 0.543971 -0.055245 -0.102894
v 0.581432 -0.081077 -0.148398
v 0.720417 -0.176919 -0.148398
v 0.757877 -0.202752 -0.102894
v 0.694584 -0.214380 -0.102894
v 0.581432 -0.081077 0.159110
v 0.543971 -0.055245 0.113606
v 0.555599 -0.118538 0.113606
v 0.694584 -0.214380 0.113606
v 0.757877 -0.202752 0.113606
v 0.720417 -0.176919 0.159110
v 0.948745 0.154190 -0.148398
v 0.974577 0.191650 -0.102894
v 0.986206 0.128358 -0.102894
v 0.948745 0.154190 0.159110
v 0.986206 0.128358 0.113606
v 0.974577 0.191650 0.113606
v 0.772300 0.275864 -0.102894
v 0.835592 0.287493 -0.102894
v 0.809760 0.250032 -0.148398
v 0.809760 0.250032 0.159110
v 0.835592 0.287493 0.113606
v 0.772299 0.275864 0.113606
v -0.555599 -0.118538 0.102894
v -0.543971 -0.055245 0.102894
v -0.581432 -0.081077 0.148398
v -0.720417 -0.176919 0.148398
v -0.757877 -0.202752 0.102894
v -0.694584 -0.214380 0.102895
v -0.581432 -0.081077 -0.159110
v -0.543971 -0.055245 -0.113606
v -0.555599 -0.118538 -0.113606
v -0.694584 -0.214380 -0.113606
v -0.757877 -0.202752 -0.113606
v -0.720417 -0.176919 -0.159110
v -0.948745 0.154190 0.148398
v -0.974577 0.191650 0.102895
v -0.986206 0.128358 0.102895
v -0.948745 0.154190 -0.159110
v -0.986206 0.128358 -0.113606
v -0.974577 0.191650 -0.113606
v -0.772299 0.275864 0.102895
v -0.835592 0.287493 0.102895
v -0.809760 0.250032 0.148398
v -0.809760 0.250032 -0.159110
v -0.835592 0.287493 -0.113606
v -0.772300 0.275864 -0.113606
v 0.102894 -0.118538 0.555600
v 0.102894 -0.055245 0.543971
v 0.148398 -0.081077 0.581432
v 0.148398 -0.176919 0.720417
v 0.102895 -0.202752 0.757877
v 0.102895 -0.214380 0.694585
v -0.159110 -0.081077 0.581432
v -0.113606 -0.055245 0.543971
v -0.113606 -0.118538 0.555600
v -0.113606 -0.214380 0.694585
v -0.113606 -0.202752 0.757877
v -0.159110 -0.176919 0.720417
v 0.148399 0.154190 0.948745
v 0.102895 0.191650 0.974577
v 0.102895 0.128358 0.986206
v -0.159110 0.154190 0.948745
v -0.113606 0.128358 0.986206
v -0.113606 0.191650 0.974578
v 0.102895 0.275864 0.772300
v 0.102895 0.287493 0.835592
v 0.148398 0.250032 0.809760
v -0.159110 0.250032 0.809760
v -0.113606 0.287493 0.835593
v -0.113606 0.275864 0.772300
vn -0.5774 -0.1475 0.8031
vn -0.5774 -0.8031 -0.1475
vn 0.5774 -0.1475 0.8031
vn 0.5774 -0.8031 -0.1475
vn -0.5774 0.1475 -0.8031
vn 0.5774 0.1475 -0.8031
vn -0.5774 0.8031 0.1475
vn 0.5774 0.8031 0.1475
vn -0.7071 -0.5821 0.4014
vn -0.7071 0.4014 0.5821
vn 0.7071 -0.5821 0.4014
vn 0.7071 -0.4014 -0.5821
vn -0.0000 -0.1807 0.9835
vn -0.0000 -0.9835 -0.1807
vn 0.7071 0.4014 0.5821
vn -0.7071 -0.4014 -0.5821
vn -0.0000 0.1807 -0.9835
vn -0.7071 0.5821 -0.4014
vn -0.0000 0.9835 0.1807
vn 0.7071 0.5821 -0.4014
vn -0.0000 -0.8232 0.5677
vn -1.0000 -0.0000 -0.0000
vn -0.0000 0.5677 0.8232
vn -0.0000 -0.5677 -0.8232
vn 1.0000 -0.0000 -0.0000
vn -0.0000 0.8232 -0.5677
vn -0.0000 -1.0000 -0.0000
vn -0.7071 0.7071 -0.0000
vn -0.0000 0.7071 0.7071
vn -0.0000 0.7071 -0.7071
vn 0.7071 0.7071 -0.0000
vn -0.0000 -0.0000 1.0000
vn -0.0000 1.0000 -0.0000
vn -0.0000 -0.0000 -1.0000
vn -0.8031 -0.1475 -0.5774
vn 0.1475 -0.8031 -0.5774
vn -0.8031 -0.1475 0.5773
vn 0.1475 -0.8031 0.5774
vn 0.8031 0.1475 -0.5773
vn 0.8031 0.1475 0.5774
vn -0.1475 0.8031 -0.5774
vn -0.1475 0.8031 0.5774
vn -0.4014 -0.5821 -0.7071
vn -0.5821 0.4014 -0.7071
vn -0.4014 -0.5821 0.7071
vn 0.5821 -0.4014 0.7071
vn -0.9835 -0.1807 -0.0000
vn 0.1807 -0.9835 -0.0000
vn -0.5821 0.4014 0.7071
vn 0.5821 -0.4014 -0.7071
vn 0.9835 0.1807 -0.0000
vn 0.4014 0.5821 -0.7071
vn -0.1807 0.9835 -0.0000
vn 0.4014 0.5821 0.7071
vn -0.5677 -0.8232 -0.0000
vn -0.8232 0.5677 -0.0000
vn 0.8232 -0.5677 -0.0000
vn 0.5677 0.8232 -0.0000
vn 0.8031 -0.1475 0.5773
vn -0.1475 -0.8031 0.5774
vn 0.8031 -0.1475 -0.5773
vn -0.1475 -0.8031 -0.5774
vn -0.8031 0.1475 0.5774
vn -0.8031 0.1475 -0.5773
vn 0.1475 0.8031 0.5774
vn 0.1475 0.8031 -0.5774
vn 0.4014 -0.5821 0.7071
vn 0.5821 0.4014 0.7071
vn 0.4014 -0.5821 -0.7071
vn -0.5821 -0.4014 -0.7071
vn 0.9835 -0.1807 -0.0000
vn -0.1807 -0.9835 -0.0000
vn 0.5821 0.4014 -0.7071
vn -0.5821 -0.4014 0.7071
vn -0.9835 0.1807 -0.0000
vn -0.4014 0.5821 0.7071
vn 0.1807 0.9835 -0.0000
vn -0.4014 0.5821 -0.7071
vn 0.5677 -0.8232 -0.0000
vn 0.8232 0.5677 -0.0000
vn -0.8232 -0.5677 -0.0000
vn -0.5677 0.8232 -0.0000
vn 0.5773 -0.1475 -0.8031
vn 0.5774 -0.8031 0.1475
vn -0.5773 -0.1475 -0.8031
vn -0.5774 -0.8031 0.1475
vn 0.5773 0.1475 0.8031
vn -0.5773 0.1475 0.8031
vn 0.5773 0.8031 -0.1475
vn -0.5773 0.8031 -0.1475
vn 0.7071 -0.5821 -0.4014
vn 0.7071 0.4014 -0.5821
vn -0.7071 -0.5821 -0.4014
vn -0.7071 -0.4014 0.5821
vn -0.0000 -0.1807 -0.9835
vn -0.0000 -0.9835 0.1807
vn -0.7071 0.4014 -0.5821
vn 0.7071 -0.4014 0.5821
vn -0.0000 0.1807 0.9835
vn 0.7071 0.5821 0.4014
vn -0.0000 0.9835 -0.1807
vn -0.7071 0.5821 0.4014
vn -0.0000 -0.8232 -0.5677
vn -0.0000 0.5677 -0.8232
vn -0.0000 -0.5677 0.8232
vn -0.0000 0.8232 0.5677
vt 0.375000 0.043782
vt 0.398065 0.000000
vt 0.398065 0.043782
vt 0.398065 0.206218
vt 0.398065 0.286479
vt 0.375000 0.248542
vt 0.398065 0.706956
vt 0.398065 0.786994
vt 0.347219 0.726336
vt 0.347219 0.523664
vt 0.398065 0.463006
vt 0.398065 0.543044
vt 0.601935 0.206218
vt 0.625000 0.248542
vt 0.601935 0.286479
vt 0.601935 0.543044
vt 0.601935 0.463006
vt 0.652781 0.523664
vt 0.601935 0.000000
vt 0.625000 0.043782
vt 0.601935 0.043782
vt 0.601935 0.706956
vt 0.652781 0.726336
vt 0.601935 0.786994
vt 0.375000 0.963006
vt 0.398065 0.963006
vt 0.625000 0.963006
vt 0.601935 0.963006
vt 0.161994 0.706218
vt 0.161994 0.543782
vt 0.838006 0.543782
vt 0.838006 0.706218
vt 0.125000 0.500000
vt 0.375000 0.500000
vt 0.375000 0.750000
vt 0.125000 0.750000
vt 0.682770 0.692230
vt 0.817230 0.692230
vt 0.875000 0.750000
vt 0.511886 0.750000
vt 0.682770 0.557770
vt 0.511886 0.500000
vt 0.817230 0.557770
vt 0.875000 0.500000
vt 0.447055 1.000000
vt 0.375000 1.000000
vt 0.375000 0.000000
vt 0.447055 0.000000
vt 0.447055 0.250000
vt 0.375000 0.250000
s 0
usemtl 
f 1/1/1 2/2/1 3/3/1
f 4/4/2 5/5/2 6/6/2
f 7/7/3 8/8/3 9/9/3
f 10/10/4 11/11/4 12/12/4
f 13/13/5 14/14/5 15/15/5
f 16/16/6 17/17/6 18/18/6
f 19/19/7 20/20/7 21/21/7
f 22/22/8 23/23/8 24/24/8
f 6/6/9 1/1/9 3/3/9 4/4/9
f 2/2/10 19/19/10 21/21/10 3/3/10
f 9/9/11 10/10/11 12/12/11 7/7/11
f 16/16/12 12/12/12 11/11/12 17/17/12
f 1/25/13 9/9/13 8/8/13 2/26/13
f 10/10/14 6/6/14 5/5/14 11/11/14
f 24/24/15 8/8/15 7/7/15 22/22/15
f 15/15/16 5/5/16 4/4/16 13/13/16
f 14/14/17 18/18/17 17/17/17 15/15/17
f 20/20/18 14/14/18 13/13/18 21/21/18
f 23/23/19 20/27/19 19/28/19 24/24/19
f 18/18/20 23/23/20 22/22/20 16/16/20
f 10/10/21 9/9/21 1/29/21 6/30/21
f 3/3/22 21/21/22 13/13/22 4/4/22
f 19/28/23 2/26/23 8/8/23 24/24/23
f 5/5/24 15/15/24 17/17/24 11/11/24
f 22/22/25 7/7/25 12/12/25 16/16/25
f 14/31/26 20/32/26 23/23/26 18/18/26
f 37/1/35 38/2/35 39/3/35
f 40/4/36 41/5/36 42/6/36
f 43/7/37 44/8/37 45/9/37
f 46/10/38 47/11/38 48/12/38
f 49/13/39 50/14/39 51/15/39
f 52/16/40 53/17/40 54/18/40
f 55/19/41 56/20/41 57/21/41
f 58/22/42 59/23/42 60/24/42
f 42/6/43 37/1/43 39/3/43 40/4/43
f 38/2/44 55/19/44 57/21/44 39/3/44
f 45/9/45 46/10/45 48/12/45 43/7/45
f 52/16/46 48/12/46 47/11/46 53/17/46
f 37/25/47 45/9/47 44/8/47 38/26/47
f 46/10/48 42/6/48 41/5/48 47/11/48
f 60/24/49 44/8/49 43/7/49 58/22/49
f 51/15/50 41/5/50 40/4/50 49/13/50
f 50/14/51 54/18/51 53/17/51 51/15/51
f 56/20/52 50/14/52 49/13/52 57/21/52
f 59/23/53 56/27/53 55/28/53 60/24/53
f 54/18/54 59/23/54 58/22/54 52/16/54
f 46/10/55 45/9/55 37/29/55 42/30/55
f 39/3/34 57/21/34 49/13/34 40/4/34
f 55/28/56 38/26/56 44/8/56 60/24/56
f 41/5/57 51/15/57 53/17/57 47/11/57
f 58/22/32 43/7/32 48/12/32 52/16/32
f 50/31/58 56/32/58 59/23/58 54/18/58
f 61/1/59 62/2/59 63/3/59
f 64/4/60 65/5/60 66/6/60
f 67/7/61 68/8/61 69/9/61
f 70/10/62 71/11/62 72/12/62
f 73/13/63 74/14/63 75/15/63
f 76/16/64 77/17/64 78/18/64
f 79/19/65 80/20/65 81/21/65
f 82/22/66 83/23/66 84/24/66
f 66/6/67 61/1/67 63/3/67 64/4/67
f 62/2/68 79/19/68 81/21/68 63/3/68
f 69/9/69 70/10/69 72/12/69 67/7/69
f 76/16/70 72/12/70 71/11/70 77/17/70
f 61/25/71 69/9/71 68/8/71 62/26/71
f 70/10/72 66/6/72 65/5/72 71/11/72
f 84/24/73 68/8/73 67/7/73 82/22/73
f 75/15/74 65/5/74 64/4/74 73/13/74
f 74/14/75 78/18/75 77/17/75 75/15/75
f 80/20/76 74/14/76 73/13/76 81/21/76
f 83/23/77 80/27/77 79/28/77 84/24/77
f 78/18/78 83/23/78 82/22/78 76/16/78
f 70/10/79 69/9/79 61/29/79 66/30/79
f 63/3/32 81/21/32 73/13/32 64/4/32
f 79/28/80 62/26/80 68/8/80 84/24/80
f 65/5/81 75/15/81 77/17/81 71/11/81
f 82/22/34 67/7/34 72/12/34 76/16/34
f 74/31/82 80/32/82 83/23/82 78/18/82
f 85/1/83 86/2/83 87/3/83
f 88/4/84 89/5/84 90/6/84
f 91/7/85 92/8/85 93/9/85
f 94/10/86 95/11/86 96/12/86
f 97/13/87 98/14/87 99/15/87
f 100/16/88 101/17/88 102/18/88
f 103/19/89 104/20/89 105/21/89
f 106/22/90 107/23/90 108/24/90
f 90/6/91 85/1/91 87/3/91 88/4/91
f 86/2/92 103/19/92 105/21/92 87/3/92
f 93/9/93 94/10/93 96/12/93 91/7/93
f 100/16/94 96/12/94 95/11/94 101/17/94
f 85/25/95 93/9/95 92/8/95 86/26/95
f 94/10/96 90/6/96 89/5/96 95/11/96
f 108/24/97 92/8/97 91/7/97 106/22/97
f 99/15/98 89/5/98 88/4/98 97/13/98
f 98/14/99 102/18/99 101/17/99 99/15/99
f 104/20/100 98/14/100 97/13/100 105/21/100
f 107/23/101 104/27/101 103/28/101 108/24/101
f 102/18/102 107/23/102 106/22/102 100/16/102
f 94/10/103 93/9/103 85/29/103 90/30/103
f 87/3/25 105/21/25 97/13/25 88/4/25
f 103/28/104 86/26/104 92/8/104 108/24/104
f 89/5/105 99/15/105 101/17/105 95/11/105
f 106/22/22 91/7/22 96/12/22 100/16/22
f 98/31/106 104/32/106 107/23/106 102/18/106
usemtl Material
f 27/33/27 25/34/27 26/35/27 28/36/27
f 29/37/28 31/38/28 32/39/28 30/40/28
f 33/41/29 29/37/29 30/40/29 34/42/29
f 31/38/30 35/43/30 36/44/30 32/39/30
f 35/43/31 33/41/31 34/42/31 36/44/31
f 25/34/32 34/42/32 30/40/32 26/35/32
f 26/35/22 30/40/22 32/45/22 28/46/22
f 33/41/33 35/43/33 31/38/33 29/37/33
f 28/47/34 32/48/34 36/49/34 27/50/34
f 27/50/25 36/49/25 34/42/25 25/34/25
